<svg width="2180" height="2221" viewBox="0 0 2180 2221" fill="none" xmlns="http://www.w3.org/2000/svg">
<path fill-rule="evenodd" clip-rule="evenodd" d="M2179.17 1590.2C1976.73 1970.16 1654.16 2117.28 1220.53 2031.51C1045.45 1996.87 916.091 1920.91 781.171 1795.57C659.518 1692.83 550.491 1584.08 435.944 1527.89C409.323 1516.17 380.885 1505.74 350.245 1496.89C332.03 1492.76 313.58 1490.19 294.828 1489.44C721.144 1689.59 811.078 2235.64 1483.44 2220.11C1979.89 2208.63 2166.8 1717.05 2179.17 1590.2Z" fill="#F47F3D"/>
<path fill-rule="evenodd" clip-rule="evenodd" d="M346.939 1264.92C456.264 1072.08 634.304 986.24 823.304 977.093C1199.73 958.88 1466.3 1318.21 1577.14 1254.29C1593.86 1244.67 1601.77 1227.89 1593.68 1204.97C1559.62 1108.52 1403.53 1004.33 1248.93 938.52C1569.58 887.64 1815.37 1129.36 1913.16 1200.16C1990.5 1256.17 1968.48 1079.69 1860.36 1006.12C2093.24 1089.31 2204.41 1390.05 2076.61 1585.77C2006.81 1692.68 1850.86 1767.57 1693.56 1722.27C1297.94 1608.31 961.584 950.093 346.939 1264.92Z" fill="#F47F3D"/>
<path fill-rule="evenodd" clip-rule="evenodd" d="M1404.09 935.801C1080.25 767.894 764.531 853.547 460.011 810.467C321.834 793.521 188.194 752.907 61.8112 654.827C51.7965 647.054 37.0844 630.694 24.5244 612.721H24.5151C152.064 879.321 309.387 980.267 609.638 997.374C632.344 998.667 653.891 1000.08 674.451 1001.68C722.531 987.561 772.518 979.547 823.304 977.094C1199.73 958.881 1466.3 1318.21 1577.14 1254.29C1593.86 1244.67 1601.77 1227.89 1593.68 1204.97C1559.62 1108.52 1403.53 1004.33 1248.93 938.521C1301.1 930.281 1353.17 930.121 1404.09 935.801Z" fill="#CCCAC9"/>
<path fill-rule="evenodd" clip-rule="evenodd" d="M604.944 0.000895407C664.971 298.628 650.171 348.961 384.97 448.547C315.252 474.734 280.626 571.267 143.143 557.214C89.0084 551.681 37.7178 537.374 14.5844 541.041C-28.3062 547.841 34.3885 633.547 61.8111 654.827C288.172 830.507 537.811 821.841 795.104 822.961C1084.76 824.227 1128.46 675.107 1424.24 675.107C1539.52 675.107 1648.88 700.481 1747.01 745.934C1657.48 634.308 1194.56 536.374 1008.34 444.814C854.784 369.321 856.064 95.1876 604.944 0.000895407ZM648.904 69.0808C670.918 112.201 701.024 286.921 639.971 344.441C709.864 325.107 795.371 333.134 906.424 414.454C833.318 340.801 799.798 310.441 755.504 221.601L781.611 232.681C756.398 172.908 704.664 101.121 648.904 69.0808Z" fill="#F47F3D"/>
<path fill-rule="evenodd" clip-rule="evenodd" d="M559.371 337.561C562.051 235.281 536.464 130.027 472.704 20.7738C518.064 35.1872 560.264 56.614 600.251 82.8673C614.664 166.267 629.078 287.827 559.371 337.561Z" fill="#F47F3D"/>
<path fill-rule="evenodd" clip-rule="evenodd" d="M1376.28 2006.64C1212.25 1953.27 1049.14 1897.28 934.291 1632.16C1123.1 1855.59 1246.36 1874.55 1391.92 1886.4C1211.81 1811.85 1135.81 1736.57 1093.7 1633.45C1238.2 1735.4 1399.26 1781.52 1556.06 1742.39C1222.14 1515.8 797.638 1059.48 359.308 1320.13C381.76 1283.16 392.562 1274.32 441.211 1245.03C332.994 1256.79 238.288 1411.19 188.768 1504.64C417.92 1430.03 623.344 1662.27 781.171 1795.57C916.091 1920.91 1045.45 1996.87 1220.53 2031.51C1248.68 2037.08 1342.01 2013.08 1376.28 2006.64Z" fill="#CCCAC9"/>
</svg>
